# Blender v2.76 (sub 0) OBJ File: ''
# www.blender.org
mtllib obstacle.mtl
o Cube
v 0.291677 0.000189 -0.291677
v 0.291677 0.000189 0.291677
v -0.291677 0.000189 0.291677
v -0.291677 0.000189 -0.291678
v -0.000000 2.697958 0.000000
v 0.291677 0.000189 0.000000
v -0.291677 0.000189 -0.000000
v 0.000000 0.000189 -0.291677
v 0.000000 0.000189 0.291677
v 0.000000 0.000189 -0.000000
vn 0.000000 -1.000000 -0.000000
vn 0.994200 0.107500 0.000000
vn 0.000000 0.107500 -0.994200
vn -0.000000 0.107500 0.994200
vn -0.994200 0.107500 -0.000000
usemtl Material
s off
f 10//1 9//1 3//1 7//1
f 5//2 2//2 6//2 1//2
f 5//3 1//3 8//3 4//3
f 8//1 10//1 7//1 4//1
f 1//1 6//1 10//1 8//1
f 6//1 2//1 9//1 10//1
f 2//4 5//4 3//4 9//4
f 3//5 5//5 4//5 7//5
